<svg width="21" height="20" viewBox="0 0 21 20" fill="none" xmlns="http://www.w3.org/2000/svg">
<path d="M15.019 10.0294L18.6301 8.36276C19.0005 8.36276 19.3245 8.45535 19.6023 8.64054C19.8801 8.82572 20.019 9.1035 20.019 9.47387V18.3628C20.019 18.7331 19.8801 19.0109 19.6023 19.1961C19.3245 19.3813 19.0005 19.3813 18.6301 19.1961L15.019 17.8072C15.019 18.3628 14.8338 18.8257 14.4634 19.1961C14.0931 19.5665 13.6301 19.7516 13.0745 19.7516H1.96343C1.40787 19.7516 0.944908 19.5665 0.574538 19.1961C0.204167 18.8257 0.0189819 18.3628 0.0189819 17.8072V9.75165C0.0189819 9.38128 0.157871 9.01091 0.435649 8.64054C0.713426 8.27017 1.0375 8.08498 1.40787 8.08498C1.0375 7.34424 0.944908 6.5572 1.13009 5.72387C1.31528 4.89054 1.68565 4.24239 2.2412 3.77942C2.79676 3.31646 3.4912 3.03868 4.32454 2.94609C5.15787 2.8535 5.85232 2.99239 6.40787 3.36276C6.77824 2.62202 7.3338 2.02017 8.07454 1.5572C8.81528 1.09424 9.60232 0.862758 10.4356 0.862758C11.269 0.862758 12.056 1.09424 12.7968 1.5572C13.5375 2.02017 14.0931 2.62202 14.4634 3.36276C14.8338 4.1035 14.9727 4.93683 14.8801 5.86276C14.7875 6.78868 14.556 7.52943 14.1856 8.08498C14.3708 8.27017 14.556 8.50165 14.7412 8.77943C14.9264 9.0572 15.019 9.38128 15.019 9.75165V10.0294ZM10.5745 9.75165C10.019 9.75165 9.41713 9.65905 8.76898 9.47387C8.12083 9.28868 7.61157 8.91831 7.2412 8.36276C6.87083 8.91831 6.45417 9.28868 5.9912 9.47387C5.52824 9.65905 5.01898 9.75165 4.46343 9.75165C3.90787 9.75165 3.35232 9.65905 2.79676 9.47387L1.96343 9.75165V17.8072H13.0745V9.75165L12.2412 9.47387C11.6856 9.65905 11.1301 9.75165 10.5745 9.75165ZM3.07454 6.41831C3.07454 6.78868 3.21343 7.11276 3.4912 7.39054C3.76898 7.66831 4.09306 7.8072 4.46343 7.8072C4.8338 7.8072 5.20417 7.66831 5.57454 7.39054C5.94491 7.11276 6.13009 6.78868 6.13009 6.41831C6.13009 6.04794 5.94491 5.67757 5.57454 5.3072C5.20417 4.93683 4.8338 4.75165 4.46343 4.75165C4.09306 4.75165 3.76898 4.93683 3.4912 5.3072C3.21343 5.67757 3.07454 6.04794 3.07454 6.41831ZM10.5745 2.8072C9.8338 2.8072 9.23195 3.03868 8.76898 3.50165C8.30602 3.96461 8.07454 4.56646 8.07454 5.3072C8.07454 6.04794 8.30602 6.6498 8.76898 7.11276C9.23195 7.57572 9.8338 7.8072 10.5745 7.8072C11.3153 7.8072 11.9171 7.57572 12.3801 7.11276C12.8431 6.6498 13.0745 6.04794 13.0745 5.3072C13.0745 4.56646 12.8431 3.96461 12.3801 3.50165C11.9171 3.03868 11.3153 2.8072 10.5745 2.8072ZM13.0745 11.9739V15.8628L13.6301 15.3072L18.0745 16.9739V10.8628L13.6301 12.2516L13.0745 11.9739Z" fill="white"/>
</svg>
