<svg width="21" height="20" viewBox="0 0 21 20" fill="none" xmlns="http://www.w3.org/2000/svg">
<path d="M16.9634 4.75171C17.8894 4.75171 18.6301 5.07578 19.1856 5.72393C19.7412 6.37208 20.019 7.06652 20.019 7.80726V16.9739C20.019 17.7147 19.7412 18.3628 19.1856 18.9184C18.6301 19.4739 17.8894 19.7517 16.9634 19.7517H3.07454C2.14861 19.7517 1.40787 19.4739 0.852315 18.9184C0.29676 18.3628 0.0189819 17.7147 0.0189819 16.9739V7.80726C0.0189819 7.06652 0.29676 6.37208 0.852315 5.72393C1.40787 5.07578 2.14861 4.75171 3.07454 4.75171H9.7412L7.2412 2.52949C7.05602 2.3443 6.96343 2.11282 6.96343 1.83504C6.96343 1.55726 7.05602 1.32578 7.2412 1.1406C7.42639 0.955412 7.65787 0.862819 7.93565 0.862819C8.21343 0.862819 8.44491 0.955412 8.63009 1.1406L12.519 4.75171L16.4079 1.1406C16.5931 0.955412 16.8245 0.862819 17.1023 0.862819C17.3801 0.862819 17.6116 0.955412 17.7968 1.1406C17.9819 1.32578 18.0745 1.55726 18.0745 1.83504C18.0745 2.11282 17.9819 2.3443 17.7968 2.52949L15.2968 4.75171H16.9634ZM3.07454 6.97393C2.70417 6.97393 2.42639 7.06652 2.2412 7.25171C2.05602 7.43689 1.96343 7.62208 1.96343 7.80726V16.9739C1.96343 17.1591 2.05602 17.3443 2.2412 17.5295C2.42639 17.7147 2.70417 17.8073 3.07454 17.8073H16.9634C17.3338 17.8073 17.6116 17.7147 17.7968 17.5295C17.9819 17.3443 18.0745 17.1591 18.0745 16.9739V7.80726C18.0745 7.62208 17.9819 7.43689 17.7968 7.25171C17.6116 7.06652 17.3338 6.97393 16.9634 6.97393H3.07454ZM15.019 11.9739C14.8338 11.9739 14.6023 11.835 14.3245 11.5573C14.0468 11.2795 13.9079 11.048 13.9079 10.8628C13.9079 10.6776 14.0468 10.4462 14.3245 10.1684C14.6023 9.8906 14.8338 9.75171 15.019 9.75171C15.2042 9.75171 15.4356 9.8906 15.7134 10.1684C15.9912 10.4462 16.1301 10.6776 16.1301 10.8628C16.1301 11.048 15.9912 11.2795 15.7134 11.5573C15.4356 11.835 15.2042 11.9739 15.019 11.9739ZM15.019 15.8628C14.6486 15.8628 14.3708 15.6776 14.1856 15.3073C14.0005 14.9369 14.0005 14.6128 14.1856 14.335C14.3708 14.0573 14.6023 13.9184 14.8801 13.9184C15.1579 13.9184 15.4356 14.011 15.7134 14.1962C15.9912 14.3813 16.1301 14.6128 16.1301 14.8906C16.1301 15.1684 15.9912 15.3999 15.7134 15.585C15.4356 15.7702 15.2042 15.8628 15.019 15.8628Z" fill="white"/>
</svg>
