<svg width="21" height="21" viewBox="0 0 21 21" fill="none" xmlns="http://www.w3.org/2000/svg">
<path d="M6.40787 2.80724C5.48195 2.80724 4.7875 2.85353 4.32454 2.94613C3.86157 3.03872 3.39861 3.3165 2.93565 3.77946C2.47269 4.24242 2.19491 4.75168 2.10232 5.30724C2.00972 5.86279 1.96343 6.51094 1.96343 7.25168V11.9739C1.96343 12.8998 2.14861 13.6406 2.51898 14.1961C2.88935 15.3072 3.72269 15.8628 5.01898 15.8628H6.13009H5.57454H6.96343C7.3338 15.8628 7.65787 15.9554 7.93565 16.1406C8.21343 16.3258 8.44491 16.5109 8.63009 16.6961L10.019 18.3628L11.4079 16.6961C11.5931 16.5109 11.8245 16.3258 12.1023 16.1406C12.3801 15.9554 12.7042 15.8628 13.0745 15.8628H14.4634H13.6301H15.019C16.3153 15.8628 17.1486 15.3072 17.519 14.1961C17.8894 13.6406 18.0745 12.8998 18.0745 11.9739V7.25168C18.0745 6.32576 18.0282 5.63131 17.9356 5.16835C17.8431 4.70538 17.5653 4.24242 17.1023 3.77946C16.6394 3.3165 16.1764 3.03872 15.7134 2.94613C15.2505 2.85353 14.556 2.80724 13.6301 2.80724H6.40787ZM5.57454 0.862792C5.75972 0.862792 6.0375 0.862792 6.40787 0.862792H13.6301C15.6671 0.862792 17.2412 1.41835 18.3523 2.52946C19.4634 3.64057 20.019 5.21464 20.019 7.25168V12.5295C19.8338 14.3813 19.1856 15.7702 18.0745 16.6961C17.519 17.2517 16.9634 17.5758 16.4079 17.6683C15.8523 17.7609 15.019 17.8072 13.9079 17.8072C13.7227 17.8072 13.4449 17.9924 13.0745 18.3628L11.9634 19.7517C11.7782 20.1221 11.5005 20.3998 11.1301 20.585C10.7597 20.7702 10.3894 20.8628 10.019 20.8628C9.64861 20.8628 9.27824 20.7702 8.90787 20.585C8.5375 20.3998 8.25972 20.1221 8.07454 19.7517L6.96343 18.3628C6.59306 17.9924 6.31528 17.8072 6.13009 17.8072H5.57454C4.64861 17.8072 3.90787 17.7609 3.35232 17.6683C2.79676 17.5758 2.2412 17.298 1.68565 16.835C1.13009 16.3721 0.713426 15.7239 0.435649 14.8906C0.157871 14.0572 0.0189819 12.9924 0.0189819 11.6961V7.25168C0.0189819 5.39983 0.481945 3.91835 1.40787 2.80724C2.3338 1.69613 3.72269 1.04798 5.57454 0.862792Z" fill="white"/>
</svg>
