<svg width="21" height="21" viewBox="0 0 21 21" fill="none" xmlns="http://www.w3.org/2000/svg">
<path d="M10.2968 2.80715H9.7412L7.51898 7.25159L10.019 7.80715L12.519 7.25159L10.2968 2.80715ZM12.519 2.80715L14.4634 6.69604L17.7968 6.14048L16.1301 3.08493C16.1301 2.89974 16.0375 2.80715 15.8523 2.80715H12.519ZM12.7968 14.7516L16.9634 8.3627L14.1856 8.91826L12.7968 14.7516ZM12.2412 9.47381L10.019 9.75159L7.79676 9.47381L10.019 17.8071L12.2412 9.47381ZM7.51898 2.80715H4.18565C4.00046 2.80715 3.90787 2.89974 3.90787 3.08493L2.2412 6.14048L5.57454 6.69604L7.51898 2.80715ZM7.2412 14.7516L5.85232 8.91826L3.07454 8.3627L7.2412 14.7516ZM0.29676 7.52937C0.111575 7.34419 0.0189819 7.06641 0.0189819 6.69604C0.0189819 6.32567 0.111575 6.04789 0.29676 5.8627L1.96343 2.25159C2.14861 1.69604 2.42639 1.32567 2.79676 1.14048C3.16713 0.955296 3.63009 0.862703 4.18565 0.862703H15.8523C16.4079 0.862703 16.8708 0.955296 17.2412 1.14048C17.6116 1.32567 17.8894 1.69604 18.0745 2.25159L19.7412 5.8627C19.9264 6.04789 20.019 6.32567 20.019 6.69604C20.019 7.06641 19.9264 7.34419 19.7412 7.52937L11.9634 19.7516C11.5931 20.3071 11.1301 20.6775 10.5745 20.8627C10.019 21.0479 9.50972 21.0016 9.04676 20.7238C8.5838 20.446 8.25972 20.122 8.07454 19.7516L0.29676 7.52937Z" fill="#7E798F"/>
</svg>
