<svg width="18" height="20" viewBox="0 0 18 20" fill="none" xmlns="http://www.w3.org/2000/svg">
<path d="M11.0321 15.657H7.14324C6.77287 15.657 6.49509 15.5644 6.3099 15.3792C6.12472 15.194 6.03213 14.9626 6.03213 14.6848C6.03213 14.407 6.12472 14.1755 6.3099 13.9903C6.49509 13.8052 6.77287 13.7126 7.14324 13.7126H11.0321C11.4025 13.7126 11.6803 13.8052 11.8655 13.9903C12.0506 14.1755 12.1432 14.407 12.1432 14.6848C12.1432 14.9626 12.0506 15.194 11.8655 15.3792C11.6803 15.5644 11.4025 15.657 11.0321 15.657ZM17.9766 14.2681V9.82368C17.9766 8.34219 17.3284 7.0459 16.0321 5.93479L12.9766 2.60145C10.384 0.00886056 7.79138 0.00886056 5.19879 2.60145L2.14324 5.93479C0.84694 7.0459 0.198792 8.34219 0.198792 9.82368V14.2681C0.198792 15.9348 0.661755 17.2311 1.58768 18.157C2.51361 19.0829 3.8099 19.5459 5.47657 19.5459H12.6988C14.3655 19.5459 15.6618 19.0829 16.5877 18.157C17.5136 17.2311 17.9766 15.9348 17.9766 14.2681ZM11.5877 3.99034L14.6432 7.32368C15.5692 8.06442 16.0321 8.89775 16.0321 9.82368V14.2681C16.0321 15.3792 15.7543 16.2126 15.1988 16.7681C14.6432 17.3237 13.8099 17.6015 12.6988 17.6015H5.47657C4.36546 17.6015 3.53212 17.3237 2.97657 16.7681C2.42101 16.2126 2.14324 15.3792 2.14324 14.2681V9.82368C2.14324 8.89775 2.6062 8.06442 3.53212 7.32368L6.58768 3.99034C7.51361 3.06442 8.34694 2.60145 9.08768 2.60145C9.82842 2.60145 10.6618 3.06442 11.5877 3.99034Z" fill="white"/>
</svg>
