<svg width="21" height="19" viewBox="0 0 21 19" fill="none" xmlns="http://www.w3.org/2000/svg">
<path d="M16.1301 13.9183V16.9738C16.1301 17.5294 15.8986 17.9923 15.4356 18.3627C14.9727 18.7331 14.4634 18.9183 13.9079 18.9183H1.96343C1.40787 18.9183 0.944908 18.7331 0.574538 18.3627C0.204167 17.9923 0.0189819 17.5294 0.0189819 16.9738V7.80716C0.0189819 7.25161 0.204167 6.78864 0.574538 6.41827C0.944908 6.0479 1.40787 5.86272 1.96343 5.86272H13.9079C14.4634 5.86272 14.9727 6.0479 15.4356 6.41827C15.8986 6.78864 16.1301 7.25161 16.1301 7.80716V11.9738H18.0745V2.80716H6.13009V5.86272H3.90787V2.80716C3.90787 2.25161 4.13935 1.78864 4.60232 1.41827C5.06528 1.0479 5.57454 0.862718 6.13009 0.862718H18.0745C18.6301 0.862718 19.0931 1.0479 19.4634 1.41827C19.8338 1.78864 20.019 2.25161 20.019 2.80716V11.9738C20.019 12.5294 19.8338 12.9923 19.4634 13.3627C19.0931 13.7331 18.6301 13.9183 18.0745 13.9183H16.1301ZM1.96343 7.80716V16.9738H13.9079V7.80716H1.96343ZM6.13009 9.47383L11.1301 12.2516L6.13009 15.3072V9.47383Z" fill="white"/>
</svg>
