<svg width="21" height="18" viewBox="0 0 21 18" fill="none" xmlns="http://www.w3.org/2000/svg">
<path d="M11.3099 3.65701H19.0877C19.4581 3.65701 19.7358 3.7496 19.921 3.93479C20.1062 4.11997 20.1988 4.39775 20.1988 4.76812V15.6015C20.1988 16.157 20.0136 16.62 19.6432 16.9903C19.2729 17.3607 18.8099 17.5459 18.2543 17.5459H2.14324C1.58768 17.5459 1.12472 17.3607 0.754347 16.9903C0.383977 16.62 0.198792 16.157 0.198792 15.6015V1.71256C0.198792 1.34219 0.291384 1.06442 0.476569 0.879231C0.661754 0.694046 0.939532 0.601453 1.3099 0.601453H10.1988C10.384 0.601453 10.6155 0.694046 10.8932 0.879231C11.171 1.06442 11.3099 1.34219 11.3099 1.71256V3.65701ZM2.14324 2.5459V15.6015H18.2543V5.60145H11.3099C10.7543 5.60145 10.2451 5.41627 9.78213 5.0459C9.31916 4.67553 9.08768 4.21256 9.08768 3.65701V2.5459H2.14324ZM8.25435 8.10145L13.2543 10.6015L8.25435 13.1015V8.10145Z" fill="#FFFFFF"/>
</svg>
