<svg width="17" height="14" viewBox="0 0 17 14" fill="none" xmlns="http://www.w3.org/2000/svg">
<path d="M0.109985 9.00595V11.004C0.109985 11.3663 0.200561 11.6993 0.381714 12.003C0.562866 12.3066 0.80529 12.5491 1.10899 12.7302C1.41268 12.9114 1.74568 13.002 2.10799 13.002H5.11298C5.39004 13.002 5.62447 12.9034 5.81628 12.7062C6.00809 12.5091 6.10399 12.272 6.10399 11.995C6.10399 11.7179 6.00809 11.4835 5.81628 11.2917C5.62447 11.0999 5.39004 11.004 5.11298 11.004H3.11498C2.83792 11.004 2.60083 10.9054 2.40369 10.7082C2.20656 10.5111 2.10799 10.274 2.10799 9.99696V9.00595C2.10799 8.72889 2.01208 8.4918 1.82028 8.29466C1.62847 8.09752 1.39403 7.99896 1.11698 7.99896C0.839922 7.99896 0.602826 8.09752 0.40569 8.29466C0.208553 8.4918 0.109985 8.72889 0.109985 9.00595ZM2.10799 4.99396V4.00295C2.10799 3.7259 2.20656 3.4888 2.40369 3.29166C2.60083 3.09453 2.83792 2.99596 3.11498 2.99596H5.11298C5.39004 2.99596 5.62447 2.90006 5.81628 2.70825C6.00809 2.51644 6.10399 2.28201 6.10399 2.00495C6.10399 1.72789 6.00809 1.4908 5.81628 1.29366C5.62447 1.09653 5.39004 0.997957 5.11298 0.997957H2.10799C1.74568 0.997957 1.41268 1.08853 1.10899 1.26969C0.80529 1.45084 0.562866 1.69326 0.381714 1.99696C0.200561 2.30065 0.109985 2.63366 0.109985 2.99596V4.99396C0.109985 5.27102 0.208553 5.50811 0.40569 5.70525C0.602826 5.90239 0.839922 6.00095 1.11698 6.00095C1.39403 6.00095 1.62847 5.90239 1.82028 5.70525C2.01208 5.50811 2.10799 5.27102 2.10799 4.99396ZM10.116 11.995C10.116 12.272 10.2119 12.5091 10.4037 12.7062C10.5955 12.9034 10.8299 13.002 11.107 13.002H14.112C14.4743 13.002 14.8073 12.9114 15.111 12.7302C15.4147 12.5491 15.6571 12.3066 15.8383 12.003C16.0194 11.6993 16.11 11.3663 16.11 11.004V9.00595C16.11 8.72889 16.0114 8.4918 15.8143 8.29466C15.6171 8.09752 15.38 7.99896 15.103 7.99896C14.8259 7.99896 14.5915 8.09752 14.3997 8.29466C14.2079 8.4918 14.112 8.72889 14.112 9.00595V9.99696C14.112 10.274 14.0134 10.5111 13.8163 10.7082C13.6191 10.9054 13.382 11.004 13.105 11.004H11.107C10.8299 11.004 10.5955 11.0999 10.4037 11.2917C10.2119 11.4835 10.116 11.7179 10.116 11.995ZM11.107 2.99596H13.105C13.382 2.99596 13.6191 3.09453 13.8163 3.29166C14.0134 3.4888 14.112 3.7259 14.112 4.00295V4.99396C14.112 5.27102 14.2079 5.50811 14.3997 5.70525C14.5915 5.90239 14.8259 6.00095 15.103 6.00095C15.38 6.00095 15.6171 5.90239 15.8143 5.70525C16.0114 5.50811 16.11 5.27102 16.11 4.99396V2.99596C16.11 2.63366 16.0194 2.30065 15.8383 1.99696C15.6571 1.69326 15.4147 1.45084 15.111 1.26969C14.8073 1.08853 14.4743 0.997957 14.112 0.997957H11.107C10.8299 0.997957 10.5955 1.09653 10.4037 1.29366C10.2119 1.4908 10.116 1.72789 10.116 2.00495C10.116 2.28201 10.2119 2.51644 10.4037 2.70825C10.5955 2.90006 10.8299 2.99596 11.107 2.99596Z" fill="white"/>
</svg>
