<svg width="18" height="21" viewBox="0 0 18 21" fill="none" xmlns="http://www.w3.org/2000/svg">
<path d="M8.63009 20.8628L11.4079 17.2517C13.0745 16.6961 14.4634 15.6776 15.5745 14.1961C16.6856 12.7146 17.2412 11.1406 17.2412 9.4739C17.2412 7.80724 16.8245 6.32576 15.9912 5.02946C15.1579 3.73316 14.0931 2.71464 12.7968 1.9739C11.5005 1.23316 10.1116 0.862792 8.63009 0.862792C7.14861 0.862792 5.75972 1.23316 4.46343 1.9739C3.16713 2.71464 2.10232 3.73316 1.26898 5.02946C0.435649 6.32576 0.0189819 7.76094 0.0189819 9.33501C0.0189819 10.9091 0.481945 12.3906 1.40787 13.7795C2.3338 15.1683 3.44491 16.2332 4.7412 16.9739L5.85232 17.2517L8.63009 20.8628ZM10.2968 15.585L8.63009 17.5295L6.96343 15.585L5.85232 15.0295C4.7412 14.4739 3.86157 13.6869 3.21343 12.6683C2.56528 11.6498 2.2412 10.5387 2.2412 9.33501C2.2412 8.13131 2.51898 7.0202 3.07454 6.00168C3.63009 4.98316 4.41713 4.19613 5.43565 3.64057C6.45417 3.08501 7.51898 2.80724 8.63009 2.80724C9.7412 2.80724 10.806 3.08501 11.8245 3.64057C12.8431 4.19613 13.6301 4.98316 14.1856 6.00168C14.7412 7.0202 15.019 8.17761 15.019 9.4739C15.019 10.7702 14.6486 11.9739 13.9079 13.085C13.1671 14.1961 12.1486 14.9369 10.8523 15.3072L10.2968 15.585ZM8.63009 3.91835C8.25972 3.91835 7.93565 4.05724 7.65787 4.33501C7.38009 4.61279 7.2412 4.93687 7.2412 5.30724C7.2412 5.67761 7.38009 6.04798 7.65787 6.41835C7.93565 6.78872 8.25972 6.9739 8.63009 6.9739C9.00046 6.9739 9.32454 6.78872 9.60232 6.41835C9.88009 6.04798 10.019 5.67761 10.019 5.30724C10.019 4.93687 9.88009 4.61279 9.60232 4.33501C9.32454 4.05724 9.00046 3.91835 8.63009 3.91835ZM9.7412 8.08501C9.55602 7.89983 9.37083 7.80724 9.18565 7.80724H8.07454C7.88935 7.80724 7.70417 7.89983 7.51898 8.08501C7.3338 8.2702 7.2412 8.50168 7.2412 8.77946C7.2412 9.05724 7.3338 9.28872 7.51898 9.4739C7.70417 9.65909 7.88935 9.75168 8.07454 9.75168V11.9739C7.88935 11.9739 7.70417 12.0665 7.51898 12.2517C7.3338 12.4369 7.2412 12.6683 7.2412 12.9461C7.2412 13.2239 7.3338 13.4554 7.51898 13.6406C7.70417 13.8258 7.88935 13.9183 8.07454 13.9183H10.019C10.3894 13.9183 10.6671 13.8258 10.8523 13.6406C11.0375 13.4554 11.1301 13.2239 11.1301 12.9461C11.1301 12.6683 11.0375 12.4369 10.8523 12.2517C10.6671 12.0665 10.3894 11.9739 10.019 11.9739V8.91835C10.019 8.54798 9.92639 8.2702 9.7412 8.08501Z" fill="white"/>
</svg>
