<svg width="21" height="21" viewBox="0 0 21 21" fill="none" xmlns="http://www.w3.org/2000/svg">
<path d="M9.7412 18.9183C9.37083 19.4738 8.90787 19.9368 8.35232 20.3072C7.79676 20.6775 7.19491 20.8627 6.54676 20.8627C5.89861 20.8627 5.29676 20.6775 4.7412 20.3072C4.18565 19.9368 3.72269 19.4738 3.35232 18.9183C2.79676 18.9183 2.2875 18.6405 1.82454 18.085C1.36157 17.5294 1.13009 16.9738 1.13009 16.4183V2.80718H0.0189819V0.862731H10.019C10.2042 0.862731 10.4356 0.955324 10.7134 1.14051C10.9912 1.32569 11.1301 1.60347 11.1301 1.97384V8.91829H14.1856L13.0745 2.80718H18.0745L16.9634 8.91829H17.519C18.2597 8.91829 18.8616 9.14977 19.3245 9.61273C19.7875 10.0757 20.019 10.6775 20.019 11.4183V16.4183C20.019 16.9738 19.7875 17.5294 19.3245 18.085C18.8616 18.6405 18.3523 18.9183 17.7968 18.9183C17.4264 19.4738 16.9634 19.9368 16.4079 20.3072C15.8523 20.6775 15.2042 20.8627 14.4634 20.8627C13.7227 20.8627 13.0745 20.6775 12.519 20.3072C11.9634 19.9368 11.5931 19.4738 11.4079 18.9183H9.7412ZM11.1301 16.9738C11.1301 16.0479 11.4542 15.3072 12.1023 14.7516C12.7505 14.1961 13.5375 13.9183 14.4634 13.9183C15.3894 13.9183 16.1764 14.1961 16.8245 14.7516C17.4727 15.3072 17.8894 15.9553 18.0745 16.6961V11.4183L17.7968 10.8627H17.519H3.07454V16.6961C3.25972 15.9553 3.67639 15.3072 4.32454 14.7516C4.97269 14.1961 5.71343 13.9183 6.54676 13.9183C7.38009 13.9183 8.12083 14.1961 8.76898 14.7516C9.41713 15.3072 9.8338 16.0479 10.019 16.9738H11.1301ZM3.07454 2.80718V8.91829H8.90787V2.80718H3.07454ZM6.40787 15.8627C6.0375 15.8627 5.71343 16.0016 5.43565 16.2794C5.15787 16.5572 5.01898 16.9275 5.01898 17.3905C5.01898 17.8535 5.15787 18.2238 5.43565 18.5016C5.71343 18.7794 6.0838 18.9183 6.54676 18.9183C7.00972 18.9183 7.38009 18.7794 7.65787 18.5016C7.93565 18.2238 8.07454 17.8535 8.07454 17.3905C8.07454 16.9275 7.93565 16.5572 7.65787 16.2794C7.38009 16.0016 6.96343 15.8627 6.40787 15.8627ZM14.4634 15.8627C14.0931 15.8627 13.769 16.0016 13.4912 16.2794C13.2134 16.5572 13.0745 16.9275 13.0745 17.3905C13.0745 17.8535 13.2134 18.2238 13.4912 18.5016C13.769 18.7794 14.0931 18.9183 14.4634 18.9183C14.8338 18.9183 15.2042 18.7794 15.5745 18.5016C15.9449 18.2238 16.1301 17.8535 16.1301 17.3905C16.1301 16.9275 15.9449 16.5572 15.5745 16.2794C15.2042 16.0016 14.8338 15.8627 14.4634 15.8627Z" fill="white"/>
</svg>
