<svg width="21" height="6" viewBox="0 0 21 6" fill="none" xmlns="http://www.w3.org/2000/svg">
<path d="M2.69879 0.712592C3.25435 0.712592 3.76361 0.944074 4.22657 1.40704C4.68953 1.87 4.92101 2.42556 4.92101 3.0737C4.92101 3.72185 4.68953 4.27741 4.22657 4.74037C3.76361 5.20333 3.20805 5.43481 2.5599 5.43481C1.91175 5.43481 1.3562 5.20333 0.893236 4.74037C0.430273 4.27741 0.198792 3.72185 0.198792 3.0737C0.198792 2.42556 0.430273 1.87 0.893236 1.40704C1.3562 0.944074 1.95805 0.712592 2.69879 0.712592ZM10.1988 0.712592C10.9395 0.712592 11.5414 0.944074 12.0043 1.40704C12.4673 1.87 12.6988 2.42556 12.6988 3.0737C12.6988 3.72185 12.4673 4.27741 12.0043 4.74037C11.5414 5.20333 10.9395 5.43481 10.1988 5.43481C9.45805 5.43481 8.8562 5.20333 8.39324 4.74037C7.93027 4.27741 7.69879 3.72185 7.69879 3.0737C7.69879 2.42556 7.93027 1.87 8.39324 1.40704C8.8562 0.944074 9.45805 0.712592 10.1988 0.712592ZM17.6988 0.712592C18.4395 0.712592 19.0414 0.944074 19.5043 1.40704C19.9673 1.87 20.1988 2.42556 20.1988 3.0737C20.1988 3.72185 19.9673 4.27741 19.5043 4.74037C19.0414 5.20333 18.4858 5.43481 17.8377 5.43481C17.1895 5.43481 16.634 5.20333 16.171 4.74037C15.7081 4.27741 15.4766 3.72185 15.4766 3.0737C15.4766 2.42556 15.7081 1.87 16.171 1.40704C16.634 0.944074 17.1432 0.712592 17.6988 0.712592Z" fill="#A5A1B2"/>
</svg>
