<svg width="13" height="17" viewBox="0 0 13 17" fill="none" xmlns="http://www.w3.org/2000/svg">
<path d="M1.55556 2.43994V14.4399L10.8889 8.43994L1.55556 2.43994ZM0 1.77327C0 1.47698 0.0740741 1.21772 0.222222 0.995497C0.37037 0.773275 0.62963 0.625126 1 0.551052C1.37037 0.476978 1.7037 0.514015 2 0.662164L12.2222 7.32883C12.3704 7.47698 12.5185 7.66216 12.6667 7.88439C12.8148 8.10661 12.8519 8.4029 12.7778 8.77327C12.7037 9.14365 12.5185 9.4029 12.2222 9.55105L2 16.2177C1.7037 16.3659 1.40741 16.4399 1.11111 16.4399C0.814815 16.4399 0.555556 16.3288 0.333333 16.1066C0.111111 15.8844 0 15.5511 0 15.1066V1.77327Z" fill="white"/>
</svg>
