<svg width="16" height="21" viewBox="0 0 16 21" fill="none" xmlns="http://www.w3.org/2000/svg">
<path d="M6.63009 15.3072V16.9738C7.55602 16.4183 8.48195 16.4183 9.40787 16.9738V15.3072C9.0375 15.122 8.66713 14.9368 8.29676 14.7516L8.01898 14.4738L7.7412 14.7516C7.37083 14.9368 7.00046 15.122 6.63009 15.3072ZM4.40787 13.9183C4.22269 13.7331 4.13009 13.6405 4.13009 13.6405V13.3627H3.85232C3.48195 13.3627 3.11157 13.2701 2.7412 13.085C2.37083 12.8998 2.09306 12.6683 1.90787 12.3905C1.72269 12.1127 1.5838 11.7887 1.4912 11.4183C1.39861 11.0479 1.44491 10.6775 1.63009 10.3072V10.0294L1.35232 9.75162C1.16713 9.56644 0.981945 9.33495 0.79676 9.05718C0.611575 8.7794 0.518982 8.45532 0.518982 8.08495C0.518982 7.71458 0.611575 7.39051 0.79676 7.11273C0.981945 6.83495 1.16713 6.51088 1.35232 6.14051H1.63009V5.58495C1.44491 5.21458 1.39861 4.89051 1.4912 4.61273C1.5838 4.33495 1.72269 4.05718 1.90787 3.7794C2.09306 3.50162 2.37083 3.27014 2.7412 3.08495C3.11157 2.89977 3.48195 2.80718 3.85232 2.80718H4.13009V2.5294C4.31528 2.15903 4.54676 1.83495 4.82454 1.55718C5.10232 1.2794 5.38009 1.09421 5.65787 1.00162C5.93565 0.909027 6.25972 0.862731 6.63009 0.862731C7.00046 0.862731 7.37083 1.04792 7.7412 1.41829H8.01898H8.29676C8.48195 1.04792 8.75972 0.862731 9.13009 0.862731C9.50046 0.862731 9.87083 0.909027 10.2412 1.00162C10.6116 1.09421 10.9356 1.2794 11.2134 1.55718C11.4912 1.83495 11.6301 2.15903 11.6301 2.5294L11.9079 2.80718H12.1856C12.556 2.80718 12.8801 2.89977 13.1579 3.08495C13.4356 3.27014 13.7134 3.50162 13.9912 3.7794C14.269 4.05718 14.4079 4.33495 14.4079 4.61273C14.4079 4.89051 14.4079 5.21458 14.4079 5.58495L14.1301 6.14051H14.4079C14.7782 6.51088 15.056 6.83495 15.2412 7.11273C15.4264 7.39051 15.519 7.71458 15.519 8.08495C15.519 8.45532 15.4264 8.7794 15.2412 9.05718C15.056 9.33495 14.7782 9.56644 14.4079 9.75162L14.1301 10.0294L14.4079 10.3072C14.4079 10.6775 14.4079 11.0479 14.4079 11.4183C14.4079 11.7887 14.269 12.1127 13.9912 12.3905C13.7134 12.6683 13.4356 12.8998 13.1579 13.085C12.8801 13.2701 12.556 13.3627 12.1856 13.3627H11.9079L11.6301 13.6405L12.1856 19.4738C12.1856 19.8442 12.1394 20.122 12.0468 20.3072C11.9542 20.4924 11.769 20.6313 11.4912 20.7238C11.2134 20.8164 10.9819 20.8627 10.7968 20.8627C10.6116 20.8627 10.4264 20.7701 10.2412 20.585L8.85232 19.4738C8.66713 19.2887 8.38935 19.1961 8.01898 19.1961C7.64861 19.1961 7.37083 19.2887 7.18565 19.4738L5.79676 20.585C5.61157 20.7701 5.38009 20.8627 5.10232 20.8627C4.82454 20.8627 4.59306 20.8164 4.40787 20.7238C4.22269 20.6313 4.0838 20.4924 3.9912 20.3072C3.89861 20.122 3.85232 19.8442 3.85232 19.4738L4.40787 13.9183ZM7.18565 11.9738C7.37083 11.7887 7.60232 11.6961 7.88009 11.6961C8.15787 11.6961 8.48195 11.7887 8.85232 11.9738L9.40787 12.5294L9.68565 11.6961C9.68565 11.5109 9.82454 11.3257 10.1023 11.1405C10.3801 10.9553 10.7042 10.8627 11.0745 10.8627H11.6301V10.0294C11.4449 9.84421 11.3986 9.56644 11.4912 9.19606C11.5838 8.82569 11.7227 8.54792 11.9079 8.36273L12.7412 8.08495L11.9079 7.5294C11.7227 7.34421 11.5838 7.11273 11.4912 6.83495C11.3986 6.55718 11.4449 6.32569 11.6301 6.14051V5.30718H11.0745C10.7042 5.30718 10.3801 5.21458 10.1023 5.0294C9.82454 4.84421 9.68565 4.56643 9.68565 4.19606L9.40787 3.64051L8.85232 3.91829C8.48195 4.10347 8.15787 4.19606 7.88009 4.19606C7.60232 4.19606 7.37083 4.10347 7.18565 3.91829L6.63009 3.64051L6.35232 4.19606C6.16713 4.56643 5.98195 4.84421 5.79676 5.0294C5.61157 5.21458 5.3338 5.30718 4.96343 5.30718H4.13009L4.40787 6.14051C4.59306 6.32569 4.59306 6.55718 4.40787 6.83495C4.22269 7.11273 4.0375 7.34421 3.85232 7.5294L3.29676 8.08495L3.85232 8.36273C4.0375 8.54792 4.22269 8.82569 4.40787 9.19606C4.59306 9.56644 4.59306 9.84421 4.40787 10.0294L4.13009 10.8627H4.96343C5.3338 10.8627 5.61157 10.9553 5.79676 11.1405C5.98195 11.3257 6.16713 11.5109 6.35232 11.6961L6.63009 12.5294L7.18565 11.9738Z" fill="#7E798F"/>
</svg>
