<svg width="21" height="21" viewBox="0 0 21 21" fill="none" xmlns="http://www.w3.org/2000/svg">
<path d="M15.5113 14.5459L19.9557 18.9903C20.1409 19.1755 20.2335 19.407 20.2335 19.6848C20.2335 19.9625 20.1409 20.194 19.9557 20.3792C19.7706 20.5644 19.5391 20.657 19.2613 20.657C18.9835 20.657 18.752 20.5644 18.5669 20.3792L14.1224 15.9348C12.8261 16.8607 11.4835 17.4162 10.0946 17.6014C8.70574 17.7866 7.31685 17.6477 5.92796 17.1848C4.53907 16.7218 3.33537 15.9348 2.31685 14.8236C1.29833 13.7125 0.650182 12.4625 0.372404 11.0736C0.094626 9.68476 0.140922 8.29587 0.511293 6.90698C0.881663 5.51809 1.6224 4.26809 2.73352 3.15698C3.84463 2.04587 5.09463 1.30513 6.48352 0.934759C7.8724 0.564389 9.26129 0.518093 10.6502 0.79587C12.0391 1.07365 13.2891 1.7218 14.4002 2.74031C15.5113 3.75883 16.2983 4.96254 16.7613 6.35143C17.2243 7.74032 17.3631 9.1292 17.178 10.5181C16.9928 11.907 16.4372 13.2496 15.5113 14.5459ZM13.2891 13.7125C14.215 12.7866 14.8168 11.7681 15.0946 10.657C15.3724 9.54587 15.3724 8.43476 15.0946 7.32365C14.8168 6.21254 14.2613 5.28661 13.428 4.54587C12.5946 3.80513 11.6224 3.24957 10.5113 2.8792C9.40018 2.50883 8.28907 2.50883 7.17796 2.8792C6.06685 3.24957 5.09463 3.85143 4.26129 4.68476C3.42796 5.51809 2.82611 6.49032 2.45574 7.60143C2.08537 8.71254 2.08537 9.82365 2.45574 10.9348C2.82611 12.0459 3.38166 13.0181 4.1224 13.8514C4.86314 14.6848 5.78907 15.2403 6.90018 15.5181C8.01129 15.7959 9.1224 15.7959 10.2335 15.5181C11.3446 15.2403 12.3631 14.6385 13.2891 13.7125Z" fill="#FFFFFF"/>
</svg>
