<svg width="15" height="17" viewBox="0 0 15 17" fill="none" xmlns="http://www.w3.org/2000/svg">
<path d="M8 3.10661V10.8844C8 11.0325 7.88889 11.1807 7.66667 11.3288C7.44444 11.477 7.25926 11.5511 7.11111 11.5511C6.96296 11.5511 6.77778 11.477 6.55556 11.3288C6.33333 11.1807 6.22222 11.0325 6.22222 10.8844V3.10661L5.33333 4.21772C5.18519 4.36587 5 4.43994 4.77778 4.43994C4.55556 4.43994 4.37037 4.36587 4.22222 4.21772C4.07407 4.06957 4 3.88439 4 3.66216C4 3.43994 4.07407 3.25476 4.22222 3.10661L6.44444 0.662164C6.74074 0.514015 6.96296 0.439941 7.11111 0.439941C7.25926 0.439941 7.48148 0.514015 7.77778 0.662164L10 3.10661C10.1481 3.25476 10.2222 3.43994 10.2222 3.66216C10.2222 3.88439 10.1481 4.06957 10 4.21772C9.85185 4.36587 9.66667 4.43994 9.44444 4.43994C9.22222 4.43994 9.03704 4.36587 8.88889 4.21772L8 3.10661ZM0.666667 8.43994C0.962963 8.43994 1.18519 8.51402 1.33333 8.66216C1.48148 8.81031 1.55556 9.03253 1.55556 9.32883V13.3288L1.77778 13.9955C1.92593 14.2918 2.14815 14.514 2.44444 14.6622L3.11111 14.8844H11.1111L11.7778 14.6622C12.0741 14.514 12.2963 14.2918 12.4444 13.9955L12.6667 13.3288V9.32883C12.6667 9.03253 12.7407 8.81031 12.8889 8.66216C13.037 8.51402 13.2222 8.43994 13.4444 8.43994C13.6667 8.43994 13.8519 8.51402 14 8.66216C14.1481 8.81031 14.2222 9.03253 14.2222 9.32883V13.5511C14.2222 13.9955 14.1111 14.4399 13.8889 14.8844C13.6667 15.3288 13.2963 15.6992 12.7778 15.9955C12.2593 16.2918 11.7778 16.4399 11.3333 16.4399H2.88889C2.44444 16.4399 1.96296 16.2918 1.44444 15.9955C0.925926 15.6992 0.555556 15.3288 0.333333 14.8844C0.111111 14.4399 0 13.9955 0 13.5511V9.32883C0 9.03253 0.0740741 8.81031 0.222222 8.66216C0.37037 8.51402 0.518519 8.43994 0.666667 8.43994Z" fill="white"/>
</svg>
