<svg width="16" height="17" viewBox="0 0 16 17" fill="none" xmlns="http://www.w3.org/2000/svg">
<g clip-path="url(#clip0_1_39)">
<path d="M6 10.5C5.11111 10.5 4.2963 10.2778 3.55556 9.83333C2.81481 9.38889 2.22222 8.7963 1.77778 8.05556C1.33333 7.31481 1.07407 6.46296 1 5.5C0.925926 4.53704 1.14815 3.68519 1.66667 2.94444C2.18519 2.2037 2.81481 1.61111 3.55556 1.16667C4.2963 0.722222 5.11111 0.5 6 0.5C6.88889 0.5 7.7037 0.722222 8.44444 1.16667C9.18519 1.61111 9.77778 2.2037 10.2222 2.94444C10.6667 3.68519 10.9259 4.53704 11 5.5C11.0741 6.46296 10.8519 7.31481 10.3333 8.05556C9.81481 8.7963 9.18519 9.38889 8.44444 9.83333C7.7037 10.2778 6.88889 10.5 6 10.5ZM6 8.5C6.88889 8.5 7.62963 8.2037 8.22222 7.61111C8.81481 7.01852 9.07407 6.31481 9 5.5C8.92593 4.68519 8.62963 3.98148 8.11111 3.38889C7.59259 2.7963 6.88889 2.5 6 2.5C5.11111 2.5 4.40741 2.7963 3.88889 3.38889C3.37037 3.98148 3.11111 4.68519 3.11111 5.5C3.11111 6.31481 3.37037 7.01852 3.88889 7.61111C4.40741 8.2037 5.11111 8.5 6 8.5ZM11.7778 14.9444C11.9259 15.0926 12 15.3148 12 15.6111C12 15.9074 11.8889 16.1296 11.6667 16.2778C11.4444 16.4259 11.2222 16.5 11 16.5C10.7778 16.5 10.5185 16.4259 10.2222 16.2778C9.48148 15.537 8.59259 15.0185 7.55556 14.7222C6.51852 14.4259 5.51852 14.3889 4.55556 14.6111C3.59259 14.8333 2.66667 15.3148 1.77778 16.0556C1.62963 16.2037 1.40741 16.2778 1.11111 16.2778C0.814815 16.2778 0.555556 16.2037 0.333333 16.0556C0.111111 15.9074 0 15.6852 0 15.3889C0 15.0926 0.148148 14.8704 0.444444 14.7222C1.48148 13.6852 2.7037 13.0185 4.11111 12.7222C5.51852 12.4259 6.88889 12.463 8.22222 12.8333C9.55556 13.2037 10.7407 13.9074 11.7778 14.9444Z" fill="white"/>
</g>
<defs>
<clipPath id="clip0_1_39">
<rect width="16" height="16" fill="white" transform="matrix(1 0 0 -1 0 16.5)"/>
</clipPath>
</defs>
</svg>
