<?xml version="1.0" standalone="no"?>
<!DOCTYPE svg PUBLIC "-//W3C//DTD SVG 20010904//EN" "http://www.w3.org/TR/2001/REC-SVG-20010904/DTD/svg10.dtd">
<svg version="1.0" xmlns="http://www.w3.org/2000/svg"
    width="64.000000pt" height="64.000000pt" viewBox="0 0 64.000000 64.000000"
    preserveAspectRatio="xMidYMid meet">

    <g transform="translate(0.000000,64.000000) scale(0.100000,-0.100000)"
        fill="#fff" stroke="none">
        <path
            d="M440 575 c-14 -8 -32 -14 -41 -15 -19 0 -79 -61 -79 -80 0 -8 -51
-67 -114 -130 l-115 -115 -21 -84 c-13 -51 -18 -87 -12 -93 6 -6 42 -1 93 12
l84 21 115 115 c63 63 122 114 131 114 17 0 79 60 79 78 0 6 8 27 17 47 16 33
16 37 0 70 -17 35 -69 75 -97 75 -8 -1 -26 -7 -40 -15z m84 -26 c36 -28 48
-62 35 -96 l-10 -27 -60 60 c-54 53 -58 60 -42 71 24 18 46 16 77 -8z m-49
-79 l70 -70 -33 -32 -32 -33 -72 72 -72 72 29 31 c16 16 31 30 35 30 3 0 37
-32 75 -70z m-132 -242 l-107 -107 -58 51 c-32 27 -58 53 -58 56 0 4 48 55
107 114 l108 108 57 -57 58 -58 -107 -107z m-136 -115 c2 -5 -18 -15 -44 -21
-41 -9 -50 -8 -65 6 -14 15 -15 24 -6 64 l11 48 51 -43 c27 -24 51 -48 53 -54z" />
        <path d="M395 479 c-4 -6 -5 -13 -2 -16 7 -7 27 6 27 18 0 12 -17 12 -25 -2z" />
        <path d="M425 439 c-4 -6 -5 -13 -2 -16 7 -7 27 6 27 18 0 12 -17 12 -25 -2z" />
        <path d="M465 409 c-4 -6 -5 -13 -2 -16 7 -7 27 6 27 18 0 12 -17 12 -25 -2z" />
        <path d="M307 392 c-10 -10 -14 -22 -10 -25 7 -8 43 21 43 35 0 14 -16 9 -33
-10z" />
        <path d="M210 295 c-29 -30 -51 -58 -47 -62 8 -7 117 95 117 109 0 18 -18 5
-70 -47z" />
    </g>
</svg>