<svg width="33" height="33" viewBox="0 0 33 33" fill="none" xmlns="http://www.w3.org/2000/svg">
<g clip-path="url(#clip0_3_369)">
<path d="M4.94469 0.832628L2.27802 0.388184C1.98173 0.388184 1.61136 0.610405 1.16691 1.05485C0.722466 1.49929 0.500244 2.01781 0.500244 2.6104L0.944689 9.72152C1.24098 12.3882 1.61136 14.8326 2.0558 17.0549C2.50024 19.2771 3.38913 21.5734 4.72247 23.9437C6.0558 26.3141 7.7595 28.3141 9.83358 29.9437C11.9077 31.5734 13.8336 32.3882 15.6114 32.3882C17.3891 32.3882 19.241 31.5734 21.1669 29.9437C23.0928 28.3141 24.7965 26.3141 26.278 23.9437C27.7595 21.5734 28.7225 19.2771 29.1669 17.0549C29.6114 14.8326 29.9817 12.4623 30.278 9.94374C30.5743 7.42522 30.7225 4.98078 30.7225 2.6104C30.7225 2.01781 30.5002 1.49929 30.0558 1.05485C29.6114 0.610405 29.241 0.388184 28.9447 0.388184L21.8336 1.72152C19.7595 2.01781 17.6854 2.16596 15.6114 2.16596C13.5373 2.16596 11.4632 2.01781 9.38913 1.72152L4.94469 0.832628ZM3.61136 16.3882C3.31506 14.6104 3.16691 12.3882 3.16691 9.72152L2.72247 2.6104L6.72247 3.05485C9.38913 3.64744 12.3521 3.94374 15.6114 3.94374C18.8706 3.94374 21.8336 3.64744 24.5002 3.05485L28.5002 2.6104C28.5002 4.98078 28.4262 7.42522 28.278 9.94374C28.1299 12.4623 27.8336 14.6845 27.3891 16.6104C26.9447 18.5363 26.0558 20.6104 24.7225 22.8326C23.3891 25.0549 21.9077 26.8326 20.278 28.166C18.6484 29.4993 17.0928 30.24 15.6114 30.3882C14.1299 30.5363 12.5743 29.8697 10.9447 28.3882C9.31506 26.9067 7.83358 25.0549 6.50024 22.8326C5.16691 20.6104 4.20395 18.4623 3.61136 16.3882Z" fill="#EA003D"/>
</g>
<g clip-path="url(#clip1_3_369)">
<path d="M1.38913 13.2772C1.09284 13.2772 0.870614 13.129 0.722466 12.8327C0.574318 12.5364 0.500244 12.2401 0.500244 11.9438C0.500244 11.6476 0.648392 11.4253 0.944689 11.2772C1.24098 11.129 1.53728 11.055 1.83358 11.055C3.61136 11.3513 5.09284 10.9068 6.27802 9.72163C6.27802 9.42533 6.42617 9.27718 6.72247 9.27718C7.01876 9.27718 7.31506 9.42533 7.61135 9.72163C7.90765 10.0179 7.98173 10.2401 7.83358 10.3883C7.68543 10.5364 7.61135 10.7587 7.61135 11.055C6.12987 12.5364 4.0558 13.2772 1.38913 13.2772ZM13.8336 22.1661C12.9447 21.2772 11.8336 20.6846 10.5002 20.3883C9.16691 20.092 7.90765 20.3883 6.72247 21.2772L5.83358 22.6105C5.53728 22.6105 5.24098 22.6846 4.94469 22.8327C4.64839 22.9809 4.42617 22.9809 4.27802 22.8327C4.12987 22.6846 4.0558 22.4624 4.0558 22.1661C4.0558 21.8698 4.20395 21.4994 4.50024 21.055C4.79654 20.6105 5.31506 20.092 6.0558 19.4994C6.79654 18.9068 7.7595 18.5364 8.94469 18.3883C10.1299 18.2401 11.3151 18.3883 12.5002 18.8327C13.6854 19.2772 14.7225 20.092 15.6114 21.2772C15.6114 21.5735 15.6114 21.7957 15.6114 21.9438C15.6114 22.092 15.4632 22.2401 15.1669 22.3883C14.8706 22.5364 14.6484 22.6105 14.5002 22.6105C14.3521 22.6105 14.1299 22.4624 13.8336 22.1661ZM12.0558 11.055C13.5373 12.5364 15.6114 13.2772 18.278 13.2772C18.5743 13.2772 18.7965 13.129 18.9447 12.8327C19.0928 12.5364 19.1669 12.2401 19.1669 11.9438C19.1669 11.6476 19.0188 11.4253 18.7225 11.2772C18.4262 11.129 18.1299 11.055 17.8336 11.055C16.0558 11.3513 14.5743 10.9068 13.3891 9.72163C13.3891 9.42533 13.241 9.27718 12.9447 9.27718C12.6484 9.27718 12.3521 9.42533 12.0558 9.72163C11.7595 10.0179 11.6854 10.2401 11.8336 10.3883C11.9817 10.5364 12.0558 10.7587 12.0558 11.055Z" fill="#7E798F"/>
</g>
<defs>
<clipPath id="clip0_3_369">
<rect width="32" height="32" fill="white" transform="matrix(1 0 0 -1 0.500244 32.3882)"/>
</clipPath>
<clipPath id="clip1_3_369">
<rect width="32" height="32" fill="white" transform="matrix(1 0 0 -1 0.500244 32.3882)"/>
</clipPath>
</defs>
</svg>
