<svg width="33" height="33" viewBox="0 0 33 33" fill="none" xmlns="http://www.w3.org/2000/svg">
<g clip-path="url(#clip0_3_379)">
<path d="M12.5002 27.0549C13.9817 27.0549 15.5373 26.3883 17.1669 25.0549C18.7965 23.7216 20.1299 22.0179 21.1669 19.9438C22.2039 17.8697 22.9447 15.9438 23.3891 14.166C23.8336 12.3883 24.0558 10.4623 24.0558 8.38826L24.5002 2.16604C24.5002 1.86975 24.3521 1.49938 24.0558 1.05493C23.7595 0.610487 23.4632 0.388265 23.1669 0.388265L17.3891 1.27715C15.9077 1.57345 14.278 1.7216 12.5002 1.7216C10.7225 1.7216 9.09284 1.57345 7.61136 1.27715L1.83358 0.388265C1.53728 0.388265 1.24098 0.610487 0.944689 1.05493C0.648392 1.49938 0.500244 1.86975 0.500244 2.16604L0.944689 7.49938L2.72247 7.94382V2.61049L5.38913 3.05493C7.46321 3.35123 9.83358 3.49938 12.5002 3.49938C15.1669 3.49938 17.5373 3.35123 19.6114 3.05493L22.278 2.61049V8.38826L21.3891 13.7216C21.0928 15.4994 20.4262 17.2772 19.3891 19.0549C18.3521 20.8327 17.1669 22.3142 15.8336 23.4994C14.5002 24.6846 13.3891 25.2772 12.5002 25.2772H11.6114L10.7225 27.0549C11.3151 27.0549 11.9077 27.0549 12.5002 27.0549Z" fill="#7E798F"/>
</g>
<g clip-path="url(#clip1_3_379)">
<path d="M4.0558 5.72152L7.61136 6.61041C9.09284 6.9067 10.7225 7.05485 12.5002 7.05485C14.278 7.05485 15.9077 6.9067 17.3891 6.61041L23.1669 5.72152C23.4632 5.42522 23.7595 5.49929 24.0558 5.94374C24.3521 6.38818 24.5002 6.9067 24.5002 7.49929L24.0558 13.2771C24.0558 15.6474 23.8336 17.7215 23.3891 19.4993C22.9447 21.2771 22.2039 23.203 21.1669 25.2771C20.1299 27.3511 18.7965 29.0549 17.1669 30.3882C15.5373 31.7215 13.9817 32.3882 12.5002 32.3882C11.0188 32.3882 9.46321 31.7215 7.83358 30.3882C6.20395 29.0549 4.79654 27.3511 3.61136 25.2771C2.42617 23.203 1.68543 21.2771 1.38913 19.4993C1.09284 17.7215 0.944689 15.6474 0.944689 13.2771L0.500244 7.49929C0.500244 6.9067 0.648392 6.38818 0.944689 5.94374C1.24098 5.49929 1.53728 5.42522 1.83358 5.72152H4.0558ZM3.61136 19.0549C3.90765 20.8326 4.57432 22.6104 5.61136 24.3882C6.64839 26.166 7.7595 27.6474 8.94469 28.8326C10.1299 30.0178 11.241 30.5363 12.278 30.3882C13.3151 30.24 14.5002 29.6474 15.8336 28.6104C17.1669 27.5734 18.3521 26.166 19.3891 24.3882C20.4262 22.6104 21.0928 20.8326 21.3891 19.0549L22.278 13.7215V7.49929L19.6114 8.38818C17.5373 8.68448 15.1669 8.83263 12.5002 8.83263C9.83358 8.83263 7.46321 8.68448 5.38913 8.38818L2.72247 7.49929V13.7215L3.61136 19.0549ZM19.1669 13.2771C18.5743 12.6845 17.8336 12.3882 16.9447 12.3882C16.0558 12.3882 15.1669 12.8326 14.278 13.7215C14.278 13.7215 14.278 13.8697 14.278 14.166C14.278 14.4623 14.3521 14.6845 14.5002 14.8326C14.6484 14.9808 14.8706 15.0549 15.1669 15.0549C15.4632 15.0549 15.7595 14.9808 16.0558 14.8326C16.3521 14.6845 16.6484 14.5363 16.9447 14.3882C17.241 14.24 17.5373 14.3141 17.8336 14.6104L18.278 15.0549C18.278 15.0549 18.4262 15.0549 18.7225 15.0549C19.0188 15.0549 19.241 14.9808 19.3891 14.8326C19.5373 14.6845 19.6854 14.4623 19.8336 14.166C19.9817 13.8697 19.9077 13.5734 19.6114 13.2771H19.1669ZM10.7225 13.7215C10.7225 13.7215 10.7225 13.8697 10.7225 14.166C10.7225 14.4623 10.6484 14.6845 10.5002 14.8326C10.3521 14.9808 10.1299 15.0549 9.83358 15.0549C9.53728 15.0549 9.24098 14.9808 8.94469 14.8326C8.64839 14.6845 8.3521 14.5363 8.0558 14.3882C7.7595 14.24 7.46321 14.3141 7.16691 14.6104L6.72247 15.0549C6.72247 15.0549 6.57432 15.0549 6.27802 15.0549C5.98173 15.0549 5.7595 14.9808 5.61136 14.8326C5.46321 14.6845 5.31506 14.4623 5.16691 14.166C5.01876 13.8697 5.09284 13.5734 5.38913 13.2771H5.83358C6.42617 12.6845 7.16691 12.3882 8.0558 12.3882C8.94469 12.3882 9.83358 12.8326 10.7225 13.7215ZM8.0558 19.9437C8.3521 19.9437 8.64839 20.0178 8.94469 20.166C9.24098 20.3141 9.38913 20.3882 9.38913 20.3882C9.98173 21.2771 10.7225 21.8697 11.6114 22.166C12.5002 22.4623 13.3151 22.4623 14.0558 22.166C14.7965 21.8697 15.241 21.4252 15.3891 20.8326C15.5373 20.24 15.7595 19.9437 16.0558 19.9437C16.3521 19.9437 16.6484 20.0178 16.9447 20.166C17.241 20.3141 17.3891 20.4623 17.3891 20.6104C17.3891 20.7586 17.3891 20.9808 17.3891 21.2771C16.7965 22.4623 15.9077 23.3511 14.7225 23.9437C13.5373 24.5363 12.278 24.6104 10.9447 24.166C9.61136 23.7215 8.50024 22.9067 7.61136 21.7215C7.61136 21.4252 7.61136 21.1289 7.61136 20.8326C7.61136 20.5363 7.7595 20.24 8.0558 19.9437Z" fill="#EA003D"/>
</g>
<defs>
<clipPath id="clip0_3_379">
<rect width="32" height="32" fill="white" transform="matrix(1 0 0 -1 0.500244 32.3882)"/>
</clipPath>
<clipPath id="clip1_3_379">
<rect width="32" height="32" fill="white" transform="matrix(1 0 0 -1 0.500244 32.3882)"/>
</clipPath>
</defs>
</svg>
