<svg width="33" height="33" viewBox="0 0 33 33" fill="none" xmlns="http://www.w3.org/2000/svg">
<g clip-path="url(#clip0_3_389)">
<path d="M28.5002 13.7215L26.278 13.2771V12.8326C26.5743 11.6474 26.4262 10.5363 25.8336 9.49929C25.241 8.46226 24.4262 7.72152 23.3891 7.27707C22.3521 6.83263 21.1669 6.53633 19.8336 6.38818C18.5002 6.24004 17.241 6.75855 16.0558 7.94374L14.7225 9.27707L12.9447 7.94374C11.7595 6.75855 10.5002 6.16596 9.16691 6.16596C7.83358 6.16596 6.64839 6.46226 5.61136 7.05485C4.57432 7.64744 3.7595 8.46226 3.16691 9.49929C2.57432 10.5363 2.27802 11.6474 2.27802 12.8326C2.27802 17.5734 6.27802 22.0178 14.278 26.166L16.5002 24.8326L18.278 26.166L14.278 28.3882C5.09284 23.9437 0.500244 18.7586 0.500244 12.8326C0.500244 11.3511 0.870615 9.94374 1.61136 8.6104C2.3521 7.27707 3.38913 6.24004 4.72247 5.49929C6.0558 4.75855 7.31506 4.38818 8.50024 4.38818C9.68543 4.38818 10.7965 4.6104 11.8336 5.05485C12.8706 5.49929 13.8336 6.01781 14.7225 6.6104C15.3151 6.01781 16.1299 5.49929 17.1669 5.05485C18.2039 4.6104 19.3151 4.38818 20.5002 4.38818C21.6854 4.38818 22.9447 4.75855 24.278 5.49929C25.6114 6.24004 26.6484 7.27707 27.3891 8.6104C28.1299 9.94374 28.5002 11.3511 28.5002 12.8326V13.7215Z" fill="#EA003D"/>
</g>
<g clip-path="url(#clip1_3_389)">
<path d="M20.7965 20.3882C21.0928 18.6104 20.7965 16.9808 19.9077 15.4993C19.0188 14.0178 17.8336 13.0548 16.3521 12.6104C14.8706 12.166 13.3891 12.3882 11.9077 13.2771C11.0188 11.7956 9.7595 10.9067 8.12987 10.6104C6.50024 10.3141 5.01876 10.5363 3.68543 11.2771C2.3521 12.0178 1.38913 13.2771 0.79654 15.0548C-0.388645 19.203 1.98173 23.6474 7.90765 28.3882C15.3151 27.203 19.6114 24.5363 20.7965 20.3882ZM15.9077 14.6104C16.7965 14.9067 17.5373 15.5734 18.1299 16.6104C18.7225 17.6474 18.8706 18.7586 18.5743 19.9437C17.6854 22.9067 14.278 24.9808 8.3521 26.166C3.61135 22.3141 1.68543 18.7586 2.57432 15.4993C2.87061 14.3141 3.53728 13.4252 4.57432 12.8326C5.61136 12.24 6.64839 12.0919 7.68543 12.3882C8.72247 12.6845 9.53728 13.2771 10.1299 14.166L11.0188 15.9437L12.7965 15.0548C13.6854 14.4623 14.7225 14.3141 15.9077 14.6104Z" fill="#7E798F"/>
</g>
<defs>
<clipPath id="clip0_3_389">
<rect width="32" height="32" fill="white" transform="matrix(1 0 0 -1 0.500244 32.3882)"/>
</clipPath>
<clipPath id="clip1_3_389">
<rect width="32" height="32" fill="white" transform="matrix(1 0 0 -1 0.500244 32.3882)"/>
</clipPath>
</defs>
</svg>
