<svg width="33" height="33" viewBox="0 0 33 33" fill="none" xmlns="http://www.w3.org/2000/svg">
<g clip-path="url(#clip0_3_399)">
<path d="M6.61133 15.9438V16.3882L15.5002 23.0549L16.3891 22.6104C19.6484 20.8326 22.4632 18.0178 24.8336 14.166C26.9076 11.4993 28.0928 8.9808 28.3891 6.61043C28.6854 4.24006 28.315 2.61043 27.278 1.72154C26.241 0.832647 24.9076 0.388205 23.278 0.388205C21.6484 0.388205 19.8706 0.758574 17.9447 1.49932C16.0187 2.24006 14.315 3.35117 12.8336 4.83265C9.278 8.3882 7.20392 12.0919 6.61133 15.9438ZM13.7224 24.8326L14.1669 23.9438L5.72244 18.166L4.83355 18.6104C2.46318 21.2771 1.05577 23.6475 0.611328 25.7215C0.166884 27.7956 0.907624 29.5734 2.83355 31.0549C4.75948 32.5364 6.61133 32.7586 8.38911 31.7215C10.1669 30.6845 11.9447 28.3882 13.7224 24.8326ZM15.9447 20.8326L8.38911 15.4993C9.278 12.2401 11.2039 9.12894 14.1669 6.16598C15.3521 4.9808 16.7595 4.09191 18.3891 3.49932C20.0187 2.90672 21.5002 2.53635 22.8336 2.3882C24.1669 2.24006 25.1298 2.3882 25.7224 2.83265C26.315 3.27709 26.6113 4.01783 26.6113 5.05487C26.6113 6.09191 26.315 7.35117 25.7224 8.83265C25.1298 10.3141 24.3891 11.7956 23.5002 13.2771C21.1298 16.5364 18.6113 19.0549 15.9447 20.8326ZM11.5002 24.8326C10.315 27.4993 9.12985 29.203 7.94466 29.9438C6.75948 30.6845 5.50022 30.5364 4.16688 29.4993C2.83355 28.4623 2.31503 27.2771 2.61133 25.9438C2.90762 24.6104 3.94466 22.9067 5.72244 20.8326L11.5002 24.8326Z" fill="#7E798F"/>
</g>
<g clip-path="url(#clip1_3_399)">
<path d="M9.38913 29.2772C7.90765 29.2772 6.42617 28.9068 4.94469 28.1661C3.46321 27.4253 2.3521 26.3883 1.61136 25.055C0.870615 23.7216 0.500244 22.1661 0.500244 20.3883C0.500244 18.6105 0.870615 17.055 1.61136 15.7216C2.3521 14.3883 3.46321 13.3513 4.94469 12.6105C6.42617 11.8698 7.98173 11.4994 9.61136 11.4994C11.241 11.4994 12.7225 11.8698 14.0558 12.6105C15.3891 13.3513 16.5002 14.3883 17.3891 15.7216C18.278 17.055 18.7225 18.6105 18.7225 20.3883C18.7225 22.1661 18.1299 23.7957 16.9447 25.2772L23.6114 30.1661C23.6114 30.1661 23.6854 30.3142 23.8336 30.6105C23.9817 30.9068 23.9077 31.2031 23.6114 31.4994C23.3151 31.7957 23.0928 31.9438 22.9447 31.9438C22.7965 31.9438 22.5743 31.7957 22.278 31.4994L16.0558 26.6105C15.1669 27.4994 14.1299 28.1661 12.9447 28.6105C11.7595 29.055 10.5743 29.2772 9.38913 29.2772ZM16.5002 20.3883C16.5002 19.2031 16.2039 18.0179 15.6114 16.8327C15.0188 15.6476 14.2039 14.7587 13.1669 14.1661C12.1299 13.5735 10.9447 13.2772 9.61136 13.2772C8.27802 13.2772 7.09284 13.5735 6.0558 14.1661C5.01876 14.7587 4.20395 15.6476 3.61136 16.8327C3.01876 18.0179 2.72247 19.2031 2.72247 20.3883C2.72247 21.5735 3.01876 22.7587 3.61136 23.9438C4.20395 25.129 5.01876 26.0179 6.0558 26.6105C7.09284 27.2031 8.27802 27.4994 9.61136 27.4994C10.9447 27.4994 12.1299 27.2031 13.1669 26.6105C14.2039 26.0179 15.0188 25.129 15.6114 23.9438C16.2039 22.7587 16.5002 21.5735 16.5002 20.3883Z" fill="#EA003D"/>
</g>
<defs>
<clipPath id="clip0_3_399">
<rect width="32" height="32" fill="white" transform="matrix(1 0 0 -1 0.500244 32.3882)"/>
</clipPath>
<clipPath id="clip1_3_399">
<rect width="32" height="32" fill="white" transform="matrix(1 0 0 -1 0.500244 32.3882)"/>
</clipPath>
</defs>
</svg>
