<svg width="33" height="33" viewBox="0 0 33 33" fill="none" xmlns="http://www.w3.org/2000/svg">
<g clip-path="url(#clip0_3_409)">
<path d="M4.94469 0.832628L2.27802 0.388184C1.98173 0.388184 1.61136 0.610405 1.16691 1.05485C0.722466 1.49929 0.500244 2.01781 0.500244 2.6104L0.944689 9.72152C1.24098 12.3882 1.61136 14.8326 2.0558 17.0549C2.50024 19.2771 3.38913 21.5734 4.72247 23.9437C6.0558 26.3141 7.7595 28.3141 9.83358 29.9437C11.9077 31.5734 13.8336 32.3882 15.6114 32.3882C17.3891 32.3882 19.241 31.5734 21.1669 29.9437C23.0928 28.3141 24.7965 26.3141 26.278 23.9437C27.7595 21.5734 28.7225 19.2771 29.1669 17.0549C29.6114 14.8326 29.9817 12.4623 30.278 9.94374C30.5743 7.42522 30.7225 4.98078 30.7225 2.6104C30.7225 2.01781 30.5002 1.49929 30.0558 1.05485C29.6114 0.610405 29.241 0.388184 28.9447 0.388184L21.8336 1.72152C19.7595 2.01781 17.6854 2.16596 15.6114 2.16596C13.5373 2.16596 11.4632 2.01781 9.38913 1.72152L4.94469 0.832628ZM3.61136 16.3882C3.31506 14.6104 3.16691 12.3882 3.16691 9.72152L2.72247 2.6104L6.72247 3.05485C9.38913 3.64744 12.3521 3.94374 15.6114 3.94374C18.8706 3.94374 21.8336 3.64744 24.5002 3.05485L28.5002 2.6104C28.5002 4.98078 28.4262 7.42522 28.278 9.94374C28.1299 12.4623 27.8336 14.6845 27.3891 16.6104C26.9447 18.5363 26.0558 20.6104 24.7225 22.8326C23.3891 25.0549 21.9077 26.8326 20.278 28.166C18.6484 29.4993 17.0928 30.24 15.6114 30.3882C14.1299 30.5363 12.5743 29.8697 10.9447 28.3882C9.31506 26.9067 7.83358 25.0549 6.50024 22.8326C5.16691 20.6104 4.20395 18.4623 3.61136 16.3882Z" fill="#EA003D"/>
</g>
<g clip-path="url(#clip1_3_409)">
<path d="M7.88913 11.0547C7.88913 11.351 7.88913 11.6473 7.88913 11.9436C7.88913 12.2399 7.81506 12.4621 7.66691 12.6103C7.51876 12.7584 7.29654 12.8325 7.00024 12.8325C6.70395 12.8325 6.40765 12.6844 6.11136 12.3881C5.81506 12.0918 5.44469 11.8696 5.00024 11.7214C4.5558 11.5733 4.11136 11.5733 3.66691 11.7214C3.22247 11.8696 2.8521 12.0918 2.5558 12.3881C2.2595 12.6844 1.96321 12.8325 1.66691 12.8325C1.37061 12.8325 1.14839 12.7584 1.00024 12.6103C0.852096 12.4621 0.703948 12.2399 0.5558 11.9436C0.407652 11.6473 0.5558 11.277 1.00024 10.8325C1.44469 10.3881 2.11136 10.0177 3.00024 9.72141C3.88913 9.42511 4.77802 9.42511 5.66691 9.72141C6.5558 10.0177 7.29654 10.4621 7.88913 11.0547ZM13.6669 19.4992C13.9632 19.2029 14.1854 19.0547 14.3336 19.0547C14.4817 19.0547 14.7039 19.1288 15.0002 19.277C15.2965 19.4251 15.4447 19.6473 15.4447 19.9436C15.4447 20.2399 15.4447 20.3881 15.4447 20.3881C14.5558 21.5733 13.5188 22.3881 12.3336 22.8325C11.1484 23.277 9.96321 23.4251 8.77802 23.277C7.59284 23.1288 6.62987 22.7584 5.88913 22.1659C5.14839 21.5733 4.62987 21.0547 4.33358 20.6103C4.03728 20.1659 3.88913 19.8696 3.88913 19.7214C3.88913 19.5733 3.96321 19.351 4.11136 19.0547C4.2595 18.7584 4.48173 18.6844 4.77802 18.8325C5.07432 18.9807 5.37061 19.2029 5.66691 19.4992L6.5558 20.3881C7.74098 21.277 9.00024 21.5733 10.3336 21.277C11.6669 20.9807 12.778 20.3881 13.6669 19.4992ZM18.5558 12.3881C18.8521 12.3881 19.0002 12.2399 19.0002 11.9436C19.0002 11.6473 18.778 11.277 18.3336 10.8325C17.8891 10.3881 17.2225 10.0177 16.3336 9.72141C15.4447 9.42511 14.5558 9.42511 13.6669 9.72141C12.778 10.0177 12.1854 10.3881 11.8891 10.8325C11.5928 11.277 11.4447 11.6473 11.4447 11.9436C11.4447 12.2399 11.5928 12.4621 11.8891 12.6103C12.1854 12.7584 12.4077 12.8325 12.5558 12.8325C12.7039 12.8325 12.9262 12.6844 13.2225 12.3881C13.5188 12.0918 13.8891 11.8696 14.3336 11.7214C14.778 11.5733 15.2965 11.5733 15.8891 11.7214C16.4817 11.8696 16.8521 12.0918 17.0002 12.3881C17.1484 12.6844 17.3706 12.8325 17.6669 12.8325C17.9632 12.8325 18.2595 12.6844 18.5558 12.3881Z" fill="#7E798F"/>
</g>
<defs>
<clipPath id="clip0_3_409">
<rect width="32" height="32" fill="white" transform="matrix(1 0 0 -1 0.500244 32.3882)"/>
</clipPath>
<clipPath id="clip1_3_409">
<rect width="32" height="32" fill="white" transform="matrix(1 0 0 -1 0.500244 32.3882)"/>
</clipPath>
</defs>
</svg>
