<svg width="33" height="33" viewBox="0 0 33 33" fill="none" xmlns="http://www.w3.org/2000/svg">
<g clip-path="url(#clip0_3_419)">
<path d="M10.7225 13.7215C10.7225 14.0178 10.5743 14.3141 10.278 14.6104C9.98173 14.9067 9.68543 15.203 9.38913 15.4993V16.3882H7.61136V15.4993C7.31506 15.203 7.01876 14.9067 6.72247 14.6104C6.42617 14.3141 6.27802 14.0178 6.27802 13.7215L6.72247 13.2771L7.16691 12.3882V11.4993C6.57432 11.7956 6.0558 11.7215 5.61136 11.2771C5.16691 10.8326 5.09284 10.3141 5.38913 9.72152H4.50024L3.61136 10.166H3.16691C2.87061 10.166 2.57432 10.0919 2.27802 9.94374C1.98173 9.79559 1.68543 9.57337 1.38913 9.27707H0.500244V7.49929H1.38913C1.68543 7.203 1.98173 6.98078 2.27802 6.83263C2.57432 6.68448 2.87061 6.61041 3.16691 6.61041C3.46321 6.61041 3.7595 6.68448 4.0558 6.83263C4.3521 6.98078 4.50024 7.203 4.50024 7.49929C5.09284 7.49929 5.68543 7.79559 6.27802 8.38818C6.57432 8.09189 6.94469 7.94374 7.38913 7.94374C7.83358 7.94374 8.20395 8.09189 8.50024 8.38818C8.79654 8.68448 8.94469 8.98078 8.94469 9.27707C8.94469 9.57337 8.79654 9.86967 8.50024 10.166C9.09284 11.0549 9.38913 11.7956 9.38913 12.3882C9.68543 12.3882 9.98173 12.5363 10.278 12.8326C10.5743 13.1289 10.5743 13.4252 10.278 13.7215H10.7225Z" fill="#7E798F"/>
</g>
<g clip-path="url(#clip1_3_419)">
<path d="M16.0558 5.27707H17.3891C17.6854 5.27707 17.9077 5.42522 18.0558 5.72152C18.2039 6.01781 18.278 6.16596 18.278 6.16596V10.166C18.5743 10.4623 18.5743 10.7586 18.278 11.0548C17.9817 11.3511 17.6854 11.4993 17.3891 11.4993H16.0558C15.4632 12.9808 14.5002 14.166 13.1669 15.0548C11.8336 15.9437 10.3521 16.3882 8.72247 16.3882C7.09284 16.3882 5.68543 16.0178 4.50024 15.2771C3.31506 14.5363 2.3521 13.5734 1.61136 12.3882C0.870615 11.203 0.500244 9.86967 0.500244 8.38818C0.500244 6.9067 0.870615 5.57337 1.61136 4.38818C2.3521 3.203 3.31506 2.24004 4.50024 1.49929C5.68543 0.758554 7.09284 0.388184 8.72247 0.388184C10.3521 0.388184 11.8336 0.832628 13.1669 1.72152C14.5002 2.6104 15.4632 3.79559 16.0558 5.27707ZM8.50024 14.166C10.278 14.166 11.7595 13.6474 12.9447 12.6104C14.1299 11.5734 14.7225 10.166 14.7225 8.38818C14.7225 6.6104 14.1299 5.12892 12.9447 3.94374C11.7595 2.75855 10.278 2.16596 8.50024 2.16596C6.72247 2.16596 5.31506 2.75855 4.27802 3.94374C3.24098 5.12892 2.72247 6.6104 2.72247 8.38818C2.72247 10.166 3.24098 11.6474 4.27802 12.8326C5.31506 14.0178 6.72247 14.6104 8.50024 14.6104V14.166ZM30.7225 19.4993C30.7225 19.203 30.5743 18.9067 30.278 18.6104C29.3891 18.0178 28.5002 17.4252 27.6114 16.8326V15.4993C27.6114 15.203 27.4632 14.9808 27.1669 14.8326C26.8706 14.6845 26.7225 14.6104 26.7225 14.6104H22.7225C22.4262 14.3141 22.1299 14.3141 21.8336 14.6104C21.5373 14.9067 21.3891 15.203 21.3891 15.4993V16.8326C19.9077 17.4252 18.7225 18.3882 17.8336 19.7215C16.9447 21.0549 16.5002 22.5363 16.5002 24.166C16.5002 25.7956 16.8706 27.203 17.6114 28.3882C18.3521 29.5734 19.3151 30.5363 20.5002 31.2771C21.6854 32.0178 23.0188 32.3882 24.5002 32.3882C25.9817 32.3882 27.3151 32.0178 28.5002 31.2771C29.6854 30.5363 30.6484 29.5734 31.3891 28.3882C32.1299 27.203 32.5002 25.8697 32.5002 24.3882V23.4993C32.5002 23.4993 32.4262 23.3511 32.278 23.0549C32.1299 22.7586 31.9077 22.6104 31.6114 22.6104C31.3151 22.6104 31.0188 22.7586 30.7225 23.0549C30.4262 23.3511 30.278 23.6474 30.278 23.9437V24.3882C30.5743 26.166 30.1299 27.5734 28.9447 28.6104C27.7595 29.6474 26.278 30.166 24.5002 30.166C22.7225 30.166 21.3151 29.6474 20.278 28.6104C19.241 27.5734 18.7225 26.166 18.7225 24.3882C18.7225 22.6104 19.241 21.1289 20.278 19.9437C21.3151 18.7586 22.7225 18.166 24.5002 18.166C25.3891 18.4623 26.2039 18.7586 26.9447 19.0549C27.6854 19.3511 28.3521 19.7956 28.9447 20.3882C28.9447 20.3882 29.0928 20.3882 29.3891 20.3882C29.6854 20.3882 29.9817 20.3141 30.278 20.166C30.5743 20.0178 30.7225 19.7956 30.7225 19.4993Z" fill="#EA003D"/>
</g>
<defs>
<clipPath id="clip0_3_419">
<rect width="32" height="32" fill="white" transform="matrix(1 0 0 -1 0.500244 32.3882)"/>
</clipPath>
<clipPath id="clip1_3_419">
<rect width="32" height="32" fill="white" transform="matrix(1 0 0 -1 0.500244 32.3882)"/>
</clipPath>
</defs>
</svg>
