<svg width="33" height="33" viewBox="0 0 33 33" fill="none" xmlns="http://www.w3.org/2000/svg">
<g clip-path="url(#clip0_3_429)">
<path d="M8.0558 18.6105L1.38913 21.2771L0.500244 19.0549L7.16691 16.8327L3.16691 11.0549L4.50024 10.166L8.94469 15.4993L13.3891 10.166L14.7225 11.0549L10.7225 16.8327L17.3891 19.0549L16.5002 21.2771L9.83358 18.6105V26.166H8.0558V18.6105Z" fill="#7E798F"/>
</g>
<g clip-path="url(#clip1_3_429)">
<path d="M8.94469 31.0548L16.5002 27.0548L24.0558 31.0548C24.6484 31.3511 25.1669 31.4251 25.6114 31.277C26.0558 31.1289 26.4262 30.8326 26.7225 30.3881C27.0188 29.9437 27.1669 29.5733 27.1669 29.277L25.8336 20.3881L32.0558 14.1659C32.3521 13.8696 32.5002 13.4992 32.5002 13.0548C32.5002 12.6103 32.3521 12.1659 32.0558 11.7214C31.7595 11.277 31.3151 11.0548 30.7225 11.0548L22.278 9.72144L18.278 1.72145C17.9817 1.42515 17.6114 1.20293 17.1669 1.05478C16.7225 0.906631 16.278 0.906631 15.8336 1.05478C15.3891 1.20293 15.0188 1.42515 14.7225 1.72145L10.7225 9.72144L2.27802 11.0548C1.68543 11.0548 1.24098 11.2029 0.944689 11.4992C0.648392 11.7955 0.500244 12.24 0.500244 12.8326C0.500244 13.4251 0.648392 13.8696 0.944689 14.1659L7.16691 20.3881L5.83358 29.277C5.83358 29.5733 5.90765 29.9437 6.0558 30.3881C6.20395 30.8326 6.57432 31.1289 7.16691 31.277C7.7595 31.4251 8.3521 31.3511 8.94469 31.0548ZM15.6114 15.9437L4.50024 12.8326L12.0558 11.4992L15.6114 4.83256V15.9437ZM14.7225 17.7214L8.0558 27.0548L9.38913 19.9437L4.0558 14.6103L14.7225 17.7214ZM17.3891 4.83256L20.9447 11.4992L28.5002 12.8326L17.3891 15.9437V4.83256ZM18.278 17.7214L28.9447 14.6103L23.6114 19.9437L24.9447 27.0548L18.278 17.7214ZM23.1669 28.3881L16.5002 24.8326L9.83358 28.3881L16.5002 19.0548L23.1669 28.3881Z" fill="#EA003D"/>
</g>
<defs>
<clipPath id="clip0_3_429">
<rect width="32" height="32" fill="white" transform="matrix(1 0 0 -1 0.500244 32.3882)"/>
</clipPath>
<clipPath id="clip1_3_429">
<rect width="32" height="32" fill="white" transform="matrix(1 0 0 -1 0.500244 32.3882)"/>
</clipPath>
</defs>
</svg>
