<svg xmlns="http://www.w3.org/2000/svg" width="20" height="20" fill="none" viewBox="0 0 21 21" ><g clipPath="url(#clip0_1_258)"><path d="M4.53899 15.8628H1.53899C1.27377 15.8628 1.01942 15.7574 0.831879 15.5699C0.644343 15.3824 0.538986 15.128 0.538986 14.8628V2.86279C0.538986 2.59758 0.644343 2.34322 0.831879 2.15569C1.01942 1.96815 1.27377 1.86279 1.53899 1.86279H19.539C19.8042 1.86279 20.0586 1.96815 20.2461 2.15569C20.4336 2.34322 20.539 2.59758 20.539 2.86279V14.8628C20.539 15.128 20.4336 15.3824 20.2461 15.5699C20.0586 15.7574 19.8042 15.8628 19.539 15.8628H16.539V16.8628H18.539C18.8042 16.8628 19.0586 16.9681 19.2461 17.1557C19.4336 17.3432 19.539 17.5976 19.539 17.8628C19.539 18.128 19.4336 18.3824 19.2461 18.5699C19.0586 18.7574 18.8042 18.8628 18.539 18.8628H16.539C16.539 19.128 16.4336 19.3824 16.2461 19.5699C16.0586 19.7574 15.8042 19.8628 15.539 19.8628H5.53899C5.27377 19.8628 5.01942 19.7574 4.83188 19.5699C4.64434 19.3824 4.53899 19.128 4.53899 18.8628H2.53899C2.27377 18.8628 2.01942 18.7574 1.83188 18.5699C1.64434 18.3824 1.53899 18.128 1.53899 17.8628C1.53899 17.5976 1.64434 17.3432 1.83188 17.1557C2.01942 16.9681 2.27377 16.8628 2.53899 16.8628H4.53899V15.8628ZM4.53899 13.8628V10.8628C4.53899 10.5976 4.64434 10.3432 4.83188 10.1557C5.01942 9.96815 5.27377 9.86279 5.53899 9.86279H8.53899V7.86279C8.53899 7.59758 8.64434 7.34322 8.83188 7.15569C9.01942 6.96815 9.27377 6.86279 9.53899 6.86279H15.539C15.8042 6.86279 16.0586 6.96815 16.2461 7.15569C16.4336 7.34322 16.539 7.59758 16.539 7.86279V13.8628H18.539V3.86279H2.53899V13.8628H4.53899ZM10.539 17.8628H14.539V8.86279H10.539V17.8628ZM6.53899 11.8628V17.8628H8.53899V11.8628H6.53899ZM11.539 15.8628H13.539V16.8628H11.539V15.8628Z" fill="white" /></g><defs><clipPath id="clip0_1_258"><rect width="20" height="20" fill="white" transform="translate(0.538986 0.862793)" /></clipPath></defs></svg>